<?xml version="1.0" encoding="utf-8"?>
<!-- Generator: Adobe Illustrator 28.3.0, SVG Export Plug-In . SVG Version: 6.00 Build 0)  -->
<svg version="1.1" id="Calque_1" xmlns="http://www.w3.org/2000/svg" xmlns:xlink="http://www.w3.org/1999/xlink" x="0px" y="0px"
	 viewBox="0 0 478.6 220.3" style="enable-background:new 0 0 478.6 220.3;" xml:space="preserve">
<style type="text/css">
	.st0{fill-rule:evenodd;clip-rule:evenodd;fill:#322D2D;}
	.st1{fill-rule:evenodd;clip-rule:evenodd;fill:#F0AA00;}
	.st2{fill-rule:evenodd;clip-rule:evenodd;fill:#E64B00;}
	.st3{fill:#F0AA00;}
	.st4{fill:#00E8FF;}
	.st5{fill:#381A0A;}
	.st6{fill:none;stroke:#322D2D;stroke-width:0.5;stroke-miterlimit:10;}
</style>
<g>
	<g>
		<g>
			<g>
				<path class="st0" d="M273.9,95.6l-12.7-15.8v29.3h-8.4v-43h8.3l12.8,16.6l12.8-16.6h8.3v43h-8.4V79.9L273.9,95.6z M361.4,66.2
					h10.1l9,16.6l9-16.6h10.1l-14.8,25.3v17.7h-8.5V91.5L361.4,66.2z M317.6,66.2v43h-8.4v-43H317.6z M325.5,74v-7.9h32.8V74h-12.2
					v35.1h-8.5V74H325.5z M401.6,102.8l5.1-6.1l0.4,0.3c4,3.4,7.9,5.3,13,5.2c4.5,0,6.9-2.1,6.9-4.8c0-2.7-1.3-4.2-9.2-6
					c-9-2.1-14.5-4.8-14.6-13c-0.1-7.7,6.2-12.9,14.8-13c6.3-0.1,11.3,1.8,15.7,5.3l0.4,0.3l-4.5,6.5l-0.4-0.3
					c-3.8-2.8-7.5-4.2-11.2-4.1c-4.2,0-6.3,2.2-6.3,4.5c0,2.9,1.5,4.3,9.7,6.2c9,2.1,14,5.4,14.1,12.7c0.1,8.4-6.4,13.3-15.5,13.4
					c-6.6,0.1-12.8-2.2-18-6.7L401.6,102.8z M221.2,65.5c13.2,0,22.4,10,22.4,22.1c0,12.2-9.3,22.3-22.5,22.3
					c-13.2,0-22.4-10-22.4-22.1C198.7,75.6,208,65.5,221.2,65.5z M221.1,73.3c-8,0-13.6,6.4-13.6,14.3c0,8,5.7,14.5,13.7,14.5
					c8,0,13.6-6.4,13.6-14.3C234.8,79.8,229.1,73.3,221.1,73.3z M160.4,73.9l0,26.2l-8.4-8.4l0-25.5h16.8c13.4,0,22.8,9.3,22.8,21.4
					c0,12.1-9.4,21.6-22.2,21.6l-7.7-7.7h7.1c8.5,0,14-5.7,14-13.6c0-8-5.5-13.9-14-13.9H160.4z"/>
			</g>
		</g>
		<g>
			<g>
				<path class="st1" d="M102.4,49.6l23.3,23.3c-4.2-4.2-10-6.8-16.5-6.8h-43L43,43h42.9C92.3,43,98.2,45.4,102.4,49.6z"/>
			</g>
			<g>
				<polygon class="st2" points="43,43 66.3,66.1 66.3,107.5 43,84.2 				"/>
			</g>
			<g>
				<path class="st3" d="M67.8,109.1h41.4v3.6c0,10.4-8,18.8-18.2,19.5L67.8,109.1z"/>
			</g>
			<g>
				<path class="st2" d="M109.2,66.1c12.9,0,23.3,10.4,23.3,23.3c0,6.4-2.6,12.3-6.8,16.5l-19.6,19.6c-3.7,3.7-8.6,6.1-14.1,6.7
					c9.7-1.2,17.2-9.4,17.2-19.4V66.1z"/>
			</g>
		</g>
	</g>
</g>
<g>
	<g>
		<polygon class="st4" points="160.6,168.4 163.1,165.8 174.7,177.4 		"/>
		<polygon class="st5" points="188.7,140.2 186.2,142.7 174.7,131.2 		"/>
		<polygon class="st4" points="186.2,142.7 197.8,154.3 186.2,165.8 163.1,142.7 160.6,140.2 174.7,131.2 		"/>
		<polygon class="st5" points="186.2,165.8 188.7,168.4 174.7,177.4 163.1,165.8 151.5,154.3 163.1,142.7 		"/>
	</g>
	<g>
		<path class="st5" d="M218.7,163.3l-1.5-4.3h-6.2l-1.5,4.3c-0.1,0.1-0.1,0.2-0.3,0.2h-2.7c-0.2,0-0.3-0.1-0.3-0.2c0,0,0-0.1,0-0.1
			l6.1-16.7c0.1-0.2,0.1-0.2,0.3-0.2h2.8c0.2,0,0.2,0.1,0.3,0.2l6.1,16.7c0,0.1,0,0.1,0,0.1c0,0.1-0.1,0.2-0.3,0.2H219
			C218.8,163.5,218.8,163.4,218.7,163.3z M214.2,150l-2.1,6.1h4.2L214.2,150z"/>
		<path class="st5" d="M303.7,163.3l-1.5-4.3H296l-1.5,4.3c-0.1,0.1-0.1,0.2-0.3,0.2h-2.7c-0.2,0-0.3-0.1-0.3-0.2c0,0,0-0.1,0-0.1
			l6.1-16.7c0.1-0.2,0.1-0.2,0.3-0.2h2.8c0.2,0,0.2,0.1,0.3,0.2l6.1,16.7c0,0.1,0,0.1,0,0.1c0,0.1-0.1,0.2-0.3,0.2H304
			C303.8,163.5,303.7,163.4,303.7,163.3z M299.1,150l-2.1,6.1h4.2L299.1,150z"/>
		<path class="st5" d="M404.8,163.3l-1.5-4.3h-6.2l-1.5,4.3c-0.1,0.1-0.1,0.2-0.3,0.2h-2.7c-0.2,0-0.3-0.1-0.3-0.2c0,0,0-0.1,0-0.1
			l6.1-16.7c0.1-0.2,0.1-0.2,0.3-0.2h2.8c0.2,0,0.2,0.1,0.3,0.2l6.1,16.7c0,0.1,0,0.1,0,0.1c0,0.1-0.1,0.2-0.3,0.2h-2.7
			C404.9,163.5,404.8,163.4,404.8,163.3z M400.2,150l-2.1,6.1h4.2L400.2,150z"/>
		<path class="st5" d="M371.5,163.3v-16.9c0-0.2,0.1-0.2,0.2-0.2h5.3c4.4,0,8.2,2.8,8.2,8.7s-3.7,8.7-8.2,8.7h-5.3
			C371.5,163.5,371.5,163.5,371.5,163.3z M376.8,149h-2.2v11.6h2.2c3,0,5.1-1.8,5.1-5.8C381.9,150.9,379.8,149,376.8,149z"/>
		<g>
			<path class="st5" d="M427.1,155.8v4.8h8.2c0.2,0,0.2,0.1,0.2,0.2v2.4c0,0.2-0.1,0.2-0.2,0.2h-11.1c-0.2,0-0.2-0.1-0.2-0.2v-16.9
				c0-0.2,0.1-0.2,0.2-0.2H435c0.2,0,0.2,0.1,0.2,0.2v2.4c0,0.2-0.1,0.2-0.2,0.2h-7.8v3.9h7.1c0.2,0,0.2,0.1,0.2,0.2v2.4
				c0,0.2-0.1,0.2-0.2,0.2H427.1z"/>
		</g>
		<g>
			<path class="st5" d="M230.8,154.4h7.5c0.2,0,0.2,0.1,0.2,0.2v4.3c0,0.3-0.1,0.7-0.2,0.9c-1.4,2.3-4.2,3.9-7.1,3.9
				c-4.6,0-8.6-3-8.6-8.9c0-5.9,4.1-8.9,8.3-8.9c3.8,0,7,2.1,7.4,5.6c0,0.2-0.1,0.2-0.3,0.2h-2.6c-0.1,0-0.2-0.1-0.3-0.2
				c-0.7-2-2.3-2.7-4.3-2.7c-2.5,0-5,2-5,6.1c0,3.8,2.2,6.1,5.1,6.1c2,0,3.5-0.7,4.5-2.1v-1.5h-4.6c-0.2,0-0.2-0.1-0.2-0.2v-2.4
				C230.6,154.5,230.7,154.4,230.8,154.4z"/>
		</g>
		<g>
			<path class="st5" d="M387.7,163.3v-16.9c0-0.2,0.1-0.2,0.2-0.2h2.6c0.2,0,0.2,0.1,0.2,0.2v16.9c0,0.2-0.1,0.2-0.2,0.2h-2.6
				C387.7,163.5,387.7,163.5,387.7,163.3z"/>
		</g>
		<g>
			<path class="st5" d="M278.1,163.3v-16.9c0-0.2,0.1-0.2,0.2-0.2h2.6c0.2,0,0.2,0.1,0.2,0.2v14.2h8.5c0.2,0,0.2,0.1,0.2,0.2v2.4
				c0,0.2-0.1,0.2-0.2,0.2h-11.3C278.1,163.5,278.1,163.5,278.1,163.3z"/>
		</g>
		<g>
			<path class="st5" d="M409.7,163.3v-16.9c0-0.2,0.1-0.2,0.2-0.2h2.6c0.2,0,0.2,0.1,0.2,0.2v14.2h8.5c0.2,0,0.2,0.1,0.2,0.2v2.4
				c0,0.2-0.1,0.2-0.2,0.2H410C409.8,163.5,409.7,163.5,409.7,163.3z"/>
		</g>
		<g>
			<path class="st5" d="M331.8,146.4v16.9c0,0.2-0.1,0.2-0.2,0.2h-2.6c-0.2,0-0.2-0.1-0.2-0.2v-11.4l-3.7,8.5
				c-0.1,0.2-0.2,0.3-0.3,0.3h-2c-0.1,0-0.3-0.1-0.3-0.3l-3.7-8.5v11.4c0,0.2-0.1,0.2-0.2,0.2h-2.6c-0.2,0-0.2-0.1-0.2-0.2v-16.9
				c0-0.2,0.1-0.2,0.2-0.2h3.1c0.2,0,0.3,0.1,0.4,0.2l4.4,10.2l4.4-10.2c0.1-0.2,0.2-0.2,0.4-0.2h3.1
				C331.7,146.1,331.8,146.2,331.8,146.4z"/>
		</g>
		<g>
			<path class="st5" d="M367.9,163.5h-2.7c-0.2,0-0.3,0-0.4-0.2l-7.3-11.8v11.7c0,0.2-0.1,0.2-0.2,0.2h-2.7c-0.2,0-0.2-0.1-0.2-0.2
				v-16.9c0-0.2,0.1-0.2,0.2-0.2h2.7c0.2,0,0.3,0,0.4,0.2l7.3,11.8v-11.7c0-0.2,0.1-0.2,0.2-0.2h2.7c0.2,0,0.2,0.1,0.2,0.2v16.9
				C368.2,163.5,368.1,163.5,367.9,163.5z"/>
		</g>
		<path class="st5" d="M343.1,163.8c-4.3,0-8.6-2.9-8.6-8.9c0-6,4.3-8.9,8.6-8.9c4.3,0,8.6,2.9,8.6,8.9
			C351.7,160.9,347.4,163.8,343.1,163.8z M343.1,160.9c2.8,0,5.4-2,5.4-6.1c0-4.1-2.6-6.1-5.4-6.1c-2.8,0-5.4,2-5.4,6.1
			C337.7,158.9,340.3,160.9,343.1,160.9z"/>
		<path class="st5" d="M256,163.3v-16.9c0-0.2,0.1-0.2,0.2-0.2h6.8c3.2,0,5.3,1.7,5.3,4.7c0,2.2-1.5,3.8-3.2,4.5l3.7,7.8
			c0,0.1,0,0.1,0,0.1c0,0.1-0.1,0.1-0.2,0.1h-2.9c-0.2,0-0.3-0.1-0.3-0.2l-3.7-7.6h-2.6v7.6c0,0.2-0.1,0.2-0.2,0.2h-2.6
			C256.1,163.5,256,163.5,256,163.3z M259.1,149v3.7h4c1.3,0,2.1-0.7,2.1-1.9c0-1.1-0.8-1.9-2.1-1.9H259.1z"/>
		<g>
			<path class="st5" d="M241,163.3v-2c0-0.2,0.1-0.4,0.3-0.6l6.5-6.1c1.2-1.1,1.7-2.2,1.7-3.3c0-1.6-1-2.6-2.7-2.6
				c-1.6,0-2.7,0.9-2.8,2.7c0,0.3-0.1,0.4-0.3,0.4h-2.4c-0.2,0-0.3-0.1-0.3-0.4c0.1-3,2.3-5.6,5.8-5.6c3.5,0,5.7,2.2,5.7,5.3
				c0,2.3-0.9,3.6-2.7,5.4l-4.2,4h7.2c0.2,0,0.2,0.1,0.2,0.2v2.4c0,0.2-0.1,0.2-0.2,0.2h-11.5C241.1,163.5,241,163.5,241,163.3z"/>
		</g>
	</g>
	<g>
		<path class="st5" d="M214.7,131.9c0.1,0,0.1,0,0.1,0.1v2.3c0,0.2-0.1,0.4-0.1,0.5c-0.8,1.3-2.2,1.9-3.6,1.9
			c-2.4,0-4.4-1.6-4.4-4.8c0-3.2,2.2-4.8,4.2-4.8c1.8,0,3.4,0.9,3.8,2.8c0,0.1,0,0.1-0.1,0.1h-0.9c-0.1,0-0.1,0-0.2-0.1
			c-0.3-1.2-1.4-1.7-2.6-1.7c-1.6,0-3.1,1.3-3.1,3.7c0,2.4,1.2,3.7,3.2,3.7c1.2,0,2.2-0.5,2.7-1.3v-1.4h-2.6c-0.1,0-0.1,0-0.1-0.1
			V132c0-0.1,0-0.1,0.1-0.1H214.7z"/>
		<path class="st5" d="M216.5,127.4c0-0.1,0-0.1,0.1-0.1h3.3c1.8,0,2.8,0.9,2.8,2.5c0,1.3-0.8,2-1.7,2.3l2,4.4c0,0.1,0,0.1-0.1,0.1
			H222c-0.1,0-0.1,0-0.2-0.1l-2-4.3h-2.2v4.3c0,0.1,0,0.1-0.1,0.1h-0.9c-0.1,0-0.1,0-0.1-0.1V127.4z M217.6,131.1h2.4
			c1.1,0,1.6-0.5,1.6-1.4c0-0.9-0.5-1.4-1.6-1.4h-2.4V131.1z"/>
		<path class="st5" d="M224,131.9c0-3.2,2.2-4.8,4.4-4.8c2.2,0,4.4,1.6,4.4,4.8c0,3.2-2.2,4.8-4.4,4.8
			C226.2,136.7,224,135.1,224,131.9z M231.7,131.9c0-2.5-1.5-3.7-3.2-3.7c-1.7,0-3.2,1.2-3.2,3.7c0,2.5,1.5,3.7,3.2,3.7
			C230.1,135.7,231.7,134.5,231.7,131.9z"/>
		<path class="st5" d="M234.3,127.4c0-0.1,0-0.1,0.1-0.1h0.9c0.1,0,0.1,0,0.1,0.1v5.8c0,1.6,0.8,2.4,2.2,2.4c1.4,0,2.2-0.9,2.2-2.4
			v-5.8c0-0.1,0-0.1,0.1-0.1h0.9c0.1,0,0.1,0,0.1,0.1v6c0,2.1-1.4,3.3-3.3,3.3c-1.9,0-3.3-1.2-3.3-3.3V127.4z"/>
		<path class="st5" d="M242.8,127.4c0-0.1,0-0.1,0.1-0.1h3.2c2,0,3,1,3,2.6c0,1.6-1,2.6-3,2.6h-2.2v4c0,0.1,0,0.1-0.1,0.1h-0.9
			c-0.1,0-0.1,0-0.1-0.1V127.4z M243.9,131.4h2.4c1.1,0,1.7-0.5,1.7-1.5c0-1-0.5-1.5-1.7-1.5h-2.4V131.4z"/>
		<path class="st5" d="M251.8,135.5h4.6c0.1,0,0.1,0,0.1,0.1v0.8c0,0.1,0,0.1-0.1,0.1h-5.6c-0.1,0-0.1,0-0.1-0.1v-9
			c0-0.1,0-0.1,0.1-0.1h5.4c0.1,0,0.1,0,0.1,0.1v0.8c0,0.1,0,0.1-0.1,0.1h-4.4v2.8h4c0.1,0,0.1,0,0.1,0.1v0.8c0,0.1,0,0.1-0.1,0.1
			h-4V135.5z"/>
	</g>
</g>
<line class="st6" x1="151.5" y1="118.7" x2="435.4" y2="118.7"/>
</svg>
